<?xml version="1.0" standalone="no"?>
<!DOCTYPE svg PUBLIC "-//W3C//DTD SVG 20010904//EN"
 "http://www.w3.org/TR/2001/REC-SVG-20010904/DTD/svg10.dtd">
<svg version="1.0" xmlns="http://www.w3.org/2000/svg"
 width="439.000000pt" height="439.000000pt" viewBox="0 0 439.000000 439.000000"
 preserveAspectRatio="xMidYMid meet">
<metadata>
Created by potrace 1.11, written by Peter Selinger 2001-2013
</metadata>
<g transform="translate(0.000000,439.000000) scale(0.100000,-0.100000)"
fill="#000000" stroke="none">
<path d="M0 2199 l0 -1441 23 5 c12 3 112 22 222 41 110 20 209 37 220 40 37
7 90 16 130 22 22 3 59 10 83 15 23 5 59 12 80 15 20 3 44 7 52 9 8 2 35 7 60
10 25 4 77 12 115 20 39 7 88 16 110 20 52 9 44 8 305 55 124 22 239 42 255
45 17 3 91 17 165 30 74 13 153 27 175 30 22 4 47 8 55 10 8 3 33 7 55 10 22
4 47 8 55 10 8 2 31 7 50 10 19 3 60 10 90 15 32 6 471 11 1072 12 l1016 1 -1
571 -2 570 -411 0 -411 1 -1 -170 c0 -93 1 -180 4 -192 4 -21 7 -21 183 -21
99 0 183 -2 188 -5 6 -4 10 -246 4 -302 -1 -7 -198 -10 -571 -10 l-570 0 -1
60 c-2 314 1 1066 5 1073 3 5 343 9 773 10 422 0 778 1 790 1 22 1 22 1 22
221 l-1 220 -162 0 c-88 0 -537 1 -996 1 -666 0 -849 3 -905 14 -86 17 -448
82 -505 90 -14 2 -61 11 -105 19 -99 19 -111 21 -260 47 -66 11 -167 29 -225
40 -112 20 -425 76 -475 84 -16 3 -41 7 -55 10 -43 8 -254 47 -275 50 -27 4
-114 19 -280 49 -77 14 -141 26 -142 26 -2 0 -3 -648 -3 -1441z m555 867 c17
-3 102 -18 240 -41 17 -3 41 -8 55 -10 31 -7 62 -12 115 -20 22 -3 47 -7 55
-10 8 -2 31 -6 50 -9 28 -4 295 -50 475 -82 17 -3 82 -14 145 -25 63 -11 153
-26 200 -35 l85 -15 -2 -620 c-1 -342 -3 -623 -5 -625 -2 -2 -22 -6 -44 -9
-21 -4 -46 -8 -54 -10 -8 -2 -35 -7 -60 -10 -25 -3 -52 -8 -61 -11 -13 -3 -39
41 -118 201 -85 171 -106 205 -124 206 -100 3 -409 0 -413 -4 -3 -3 47 -109
111 -237 64 -128 114 -234 112 -236 -3 -4 -44 -12 -137 -28 -14 -2 -41 -7 -60
-10 -268 -47 -442 -78 -470 -82 -19 -3 -71 -12 -114 -20 -44 -8 -81 -12 -84
-9 -3 3 -6 402 -6 886 l-1 881 45 -6 c25 -3 54 -7 65 -10z"/>
</g>
</svg>
