<svg width="90" height="90" viewBox="0 0 90 90" fill="none" xmlns="http://www.w3.org/2000/svg">
<circle cx="45" cy="45" r="45" fill="#2F80ED"/>
<path d="M13 7V76.8224C14.8685 78.7404 16.5658 80.4402 18.7453 82H71.6025C73.3439 80.7537 75.7391 78.7391 76.1988 77.9067H17.0387V11.0933H82.9594V69.5576C84.5498 67.0688 85.9065 64.2892 87 61.4981V7H13Z" fill="white"/>
<circle cx="14.5" cy="62.5" r="6.5" fill="#C4C4C4"/>
<path d="M52.39 34.481V43.8116H48.0084L47.7737 39.8918H42.5313V64.5651L45.5828 65.2866V69.495H33.7681V65.2866L36.8196 64.5651V39.8918H31.5968L31.3621 43.8116H27V34.481H52.39Z" fill="white"/>
<path d="M75.5892 45.6633H71.3054L70.5621 40.8537C70.0665 40.4689 69.3428 40.1323 68.3908 39.8437C67.4389 39.5551 66.4282 39.4108 65.3589 39.4108C63.794 39.4108 62.5812 39.8196 61.7206 40.6373C60.8729 41.4389 60.4491 42.481 60.4491 43.7635C60.4491 44.9499 60.8925 45.9279 61.7792 46.6974C62.679 47.4509 64.2243 48.2525 66.4152 49.1022C69.5579 50.1764 71.9379 51.5952 73.5549 53.3587C75.185 55.1222 76 57.4389 76 60.3086C76 63.3066 75.035 65.6713 73.105 67.4028C71.175 69.1343 68.6321 70 65.4762 70C63.2202 70 61.1794 69.5591 59.3537 68.6774C57.5411 67.7956 56.0283 66.5772 54.8156 65.022V57.7114H59.2363L59.8427 62.6894C60.4165 63.2665 61.1924 63.7475 62.1705 64.1323C63.1615 64.501 64.2635 64.6854 65.4762 64.6854C67.0411 64.6854 68.2278 64.2926 69.0363 63.507C69.8579 62.7214 70.2687 61.6713 70.2687 60.3567C70.2687 59.01 69.8774 57.9279 69.095 57.1102C68.3256 56.2926 66.9694 55.523 65.0263 54.8016C61.6488 53.5992 59.0929 52.1723 57.3585 50.521C55.6241 48.8697 54.7569 46.6092 54.7569 43.7395C54.7569 40.9018 55.7349 38.5852 57.691 36.7896C59.6471 34.978 62.1053 34.0481 65.0655 34C67.2563 34 69.2515 34.4088 71.0511 35.2265C72.8507 36.0441 74.3634 37.1343 75.5892 38.497V45.6633Z" fill="white"/>
</svg>
