<svg viewBox="0 0 297 142" version="1.1" xmlns="http://www.w3.org/2000/svg" xmlns:xlink="http://www.w3.org/1999/xlink">
    <title>{CSS}</title>
    <g id="Canvas" transform="translate(-237 -1561)">
        <g id="{CSS}">
            <use xlink:href="#path0_fill" transform="translate(233 1523)" fill="#2F80ED"/>
        </g>
    </g>
    <defs>
        <path id="path0_fill" d="M 44.3672 179.406C 35.7891 176.828 29.6953 172.75 26.0859 167.172C 22.4766 161.641 20.6719 154.891 20.6719 146.922L 20.6719 131.031C 20.6719 125.312 19.3359 120.859 16.6641 117.672C 14.0391 114.438 9.96094 112.82 4.42969 112.82L 4.42969 105.508C 9.96094 105.508 14.0391 103.938 16.6641 100.797C 19.3359 97.6094 20.6719 93.1562 20.6719 87.4375L 20.6719 71.4062C 20.6719 63.3906 22.4766 56.5938 26.0859 51.0156C 29.6953 45.3906 35.7891 41.2891 44.3672 38.7109L 46.2656 44.2656C 40.2656 46.1875 35.8828 49.5156 33.1172 54.25C 30.3984 58.9375 29.0391 64.6562 29.0391 71.4062L 29.0391 87.4375C 29.0391 92.5937 27.9609 97.0703 25.8047 100.867C 23.6953 104.664 20.4844 107.43 16.1719 109.164C 20.4844 110.992 23.6953 113.828 25.8047 117.672C 27.9609 121.469 29.0391 125.922 29.0391 131.031L 29.0391 146.922C 29.0391 153.625 30.4219 159.273 33.1875 163.867C 36 168.508 40.4063 171.812 46.4062 173.781L 44.3672 179.406ZM 116.344 96.3125L 111.258 96.3125L 110.328 84.2266C 108.214 81.7109 105.461 79.6875 102.07 78.1562C 98.6797 76.5885 94.7604 75.8047 90.3125 75.8047C 81.4167 75.8047 74.3438 79.0495 69.0938 85.5391C 63.8438 91.9922 61.2188 100.341 61.2188 110.586L 61.2188 111.734C 61.2188 121.979 63.8073 130.365 68.9844 136.891C 74.1979 143.38 81.0339 146.625 89.4922 146.625C 93.9766 146.625 98.0417 145.841 101.688 144.273C 105.37 142.706 108.25 140.682 110.328 138.203L 111.258 126.117L 116.344 126.117L 116.344 140.117C 113.865 143.544 110.237 146.406 105.461 148.703C 100.721 151 95.3984 152.148 89.4922 152.148C 79.2839 152.148 70.9349 148.375 64.4453 140.828C 57.9557 133.245 54.7109 123.547 54.7109 111.734L 54.7109 110.695C 54.7109 98.8464 57.9375 89.1484 64.3906 81.6016C 70.8802 74.0182 79.3568 70.2266 89.8203 70.2266C 95.7266 70.2266 100.995 71.3932 105.625 73.7266C 110.292 76.0234 113.865 78.8854 116.344 82.3125L 116.344 96.3125ZM 183.008 95L 177.648 95L 176.719 83.7344C 174.75 81.2552 172.07 79.3229 168.68 77.9375C 165.289 76.5156 161.315 75.8047 156.758 75.8047C 150.195 75.8047 145.073 77.2266 141.391 80.0703C 137.745 82.9141 135.922 86.4505 135.922 90.6797C 135.922 94.6901 137.562 98.0443 140.844 100.742C 144.161 103.404 149.885 105.755 158.016 107.797C 166.583 109.984 173.091 112.938 177.539 116.656C 182.023 120.375 184.266 125.279 184.266 131.367C 184.266 137.711 181.677 142.76 176.5 146.516C 171.323 150.271 164.706 152.148 156.648 152.148C 150.961 152.148 145.674 151.146 140.789 149.141C 135.94 147.135 131.966 144.273 128.867 140.555L 128.867 126.609L 134.227 126.609L 135.156 138.258C 137.562 140.992 140.643 143.07 144.398 144.492C 148.154 145.914 152.237 146.625 156.648 146.625C 162.919 146.625 167.987 145.24 171.852 142.469C 175.753 139.698 177.703 136.034 177.703 131.477C 177.703 127.138 176.081 123.602 172.836 120.867C 169.591 118.096 163.94 115.654 155.883 113.539C 147.169 111.352 140.57 108.508 136.086 105.008C 131.602 101.508 129.359 96.7865 129.359 90.8438C 129.359 84.7552 131.911 79.7969 137.016 75.9688C 142.12 72.1406 148.701 70.2266 156.758 70.2266C 162.555 70.2266 167.714 71.2292 172.234 73.2344C 176.792 75.2396 180.383 77.9557 183.008 81.3828L 183.008 95ZM 249.727 95L 244.367 95L 243.438 83.7344C 241.469 81.2552 238.789 79.3229 235.398 77.9375C 232.008 76.5156 228.034 75.8047 223.477 75.8047C 216.914 75.8047 211.792 77.2266 208.109 80.0703C 204.464 82.9141 202.641 86.4505 202.641 90.6797C 202.641 94.6901 204.281 98.0443 207.562 100.742C 210.88 103.404 216.604 105.755 224.734 107.797C 233.302 109.984 239.81 112.938 244.258 116.656C 248.742 120.375 250.984 125.279 250.984 131.367C 250.984 137.711 248.396 142.76 243.219 146.516C 238.042 150.271 231.424 152.148 223.367 152.148C 217.68 152.148 212.393 151.146 207.508 149.141C 202.659 147.135 198.685 144.273 195.586 140.555L 195.586 126.609L 200.945 126.609L 201.875 138.258C 204.281 140.992 207.362 143.07 211.117 144.492C 214.872 145.914 218.956 146.625 223.367 146.625C 229.638 146.625 234.706 145.24 238.57 142.469C 242.471 139.698 244.422 136.034 244.422 131.477C 244.422 127.138 242.799 123.602 239.555 120.867C 236.31 118.096 230.659 115.654 222.602 113.539C 213.888 111.352 207.289 108.508 202.805 105.008C 198.32 101.508 196.078 96.7865 196.078 90.8438C 196.078 84.7552 198.63 79.7969 203.734 75.9688C 208.839 72.1406 215.419 70.2266 223.477 70.2266C 229.273 70.2266 234.432 71.2292 238.953 73.2344C 243.51 75.2396 247.102 77.9557 249.727 81.3828L 249.727 95ZM 258.242 173.781C 264.195 171.812 268.555 168.508 271.32 163.867C 274.133 159.227 275.539 153.578 275.539 146.922L 275.539 131.031C 275.539 125.781 276.641 121.258 278.844 117.461C 281.094 113.664 284.539 110.922 289.18 109.234C 284.539 107.594 281.094 104.875 278.844 101.078C 276.641 97.2812 275.539 92.7344 275.539 87.4375L 275.539 71.4062C 275.539 64.6562 274.156 58.9375 271.391 54.25C 268.672 49.5156 264.336 46.1875 258.383 44.2656L 260.211 38.7109C 268.742 41.2891 274.836 45.3906 278.492 51.0156C 282.148 56.5938 283.977 63.3906 283.977 71.4062L 283.977 87.4375C 283.977 93.1562 285.289 97.6094 287.914 100.797C 290.539 103.938 294.641 105.508 300.219 105.508L 300.219 112.82C 294.641 112.82 290.539 114.438 287.914 117.672C 285.289 120.859 283.977 125.312 283.977 131.031L 283.977 146.922C 283.977 154.891 282.148 161.641 278.492 167.172C 274.883 172.75 268.789 176.828 260.211 179.406L 258.242 173.781Z"/>
    </defs>
</svg>
