<svg width="231" height="199" viewBox="0 0 231 199" version="1.1" xmlns="http://www.w3.org/2000/svg" xmlns:xlink="http://www.w3.org/1999/xlink">
<title>Group 2</title>
<desc>Created using Figma</desc>
<g id="Canvas" transform="translate(-3886 -1818)">
<g id="Group 2">
<g id="Vector">
<use xlink:href="#path0_fill" transform="translate(3886 1818)" fill="#828282"/>
<use xlink:href="#path1_fill" transform="translate(3886 1818)" fill="#828282"/>
</g>
<g id="Vector">
<use xlink:href="#path0_fill" transform="translate(4014.04 1895.93)" fill="#BDBDBD"/>
<use xlink:href="#path1_fill" transform="translate(4014.04 1895.93)" fill="#BDBDBD"/>
</g>
<g id="Vector">
<use xlink:href="#path2_fill" transform="translate(3939.16 1920.68)" fill="#2F80ED"/>
<use xlink:href="#path3_fill" transform="translate(3939.16 1920.68)" fill="#2F80ED"/>
</g>
</g>
</g>
<defs>
<path id="path0_fill" d="M 97.2635 59.3294L 93.4641 57.9964C 92.5143 53.9975 90.9946 49.9986 89.0949 45.9996L 91.7544 44.2858C 92.7043 43.7145 93.2742 42.572 93.2742 41.0486C 93.2742 39.7156 92.7043 38.1922 91.7544 36.6688L 83.0159 24.8624C 81.1162 22.1965 77.5068 20.8635 75.6072 22.1965L 72.9476 23.9103C 69.7182 20.8635 66.2988 18.1975 62.4994 15.9124L 62.4994 12.1039C 62.4994 9.24753 60.2198 6.0103 57.1803 4.86775L 45.0224 0.487965C 42.1728 -0.845012 39.8932 0.67839 39.8932 3.53477L 39.8932 7.34328C 36.2838 6.96243 32.8644 7.15285 29.445 7.91455L 26.7855 4.29647C 24.6958 1.63052 21.2764 0.29754 19.3767 1.63052L 10.6382 7.15285C 9.68836 7.72413 9.11845 8.86668 9.11845 10.1997C 9.11845 11.5326 9.68836 13.056 10.6382 14.5794L 13.2977 18.1975C 11.3981 20.8635 10.0683 23.7199 8.92849 26.9571L 5.12913 25.6241C 2.27961 24.672 0 26.1954 0 29.0518L 0 41.239C 0 44.0954 2.27961 47.3326 5.3191 48.4752L 9.11845 49.8081C 10.0683 53.8071 11.588 57.806 13.4877 61.8049L 10.8282 63.5188C 9.87832 64.09 9.30842 65.2326 9.30842 66.756C 9.30842 68.089 9.87832 69.6124 10.8282 71.1358L 19.5667 82.9421C 21.6563 85.6081 25.0757 86.9411 26.9754 85.6081L 29.635 83.8943C 32.8644 86.9411 36.2838 89.607 40.0832 91.8921L 40.0832 95.7006C 40.0832 98.557 42.3628 101.794 45.4023 102.937L 57.5602 107.317C 60.4097 108.459 62.8793 106.936 62.8793 103.889L 62.8793 100.08C 66.4887 100.461 69.9081 100.271 73.3276 99.5091L 75.9871 103.127C 78.0768 105.793 81.4962 107.126 83.3959 105.793L 92.1344 100.271C 93.0842 99.6996 93.6541 98.557 93.6541 97.0336C 93.6541 95.7006 93.0842 94.1772 92.1344 92.6538L 89.4748 89.0358C 91.3745 86.3698 92.7043 83.5134 93.8441 80.2762L 97.6434 81.6092C 100.493 82.7517 102.963 81.2283 102.963 78.1815L 102.963 66.5656C 102.583 63.5188 100.303 60.2815 97.2635 59.3294ZM 98.7832 77.4198C 98.7832 78.1815 98.2133 78.7528 97.2635 78.3719L 90.4247 75.8964L 90.0447 77.2294C 89.0949 81.0379 87.3852 84.656 85.1056 87.5124L 84.3457 88.4645L 89.0949 95.1294C 89.6648 95.8911 89.6648 96.8432 89.0949 97.224L 80.3564 102.746C 79.7865 103.127 78.8366 102.746 78.2667 101.985L 73.7075 95.1294L 72.3777 95.5102C 68.5784 96.4623 64.589 96.6528 60.4097 96.0815L 58.89 95.8911L 58.89 102.746C 58.89 103.508 58.1301 104.079 57.3703 103.699L 45.2123 99.3187C 44.4525 98.9379 43.6926 97.9857 43.6926 97.224L 43.6926 90.3687L 42.1728 89.4166C 37.9936 86.9411 33.8143 83.7038 30.2049 80.0858L 28.8751 78.7528L 24.1259 81.7996C 23.556 82.1804 22.6062 81.7996 22.0363 81.0379L 13.2977 69.4219C 12.7278 68.6602 12.7278 67.7081 13.2977 67.3273L 18.0469 64.2805L 17.2871 62.7571C 15.0075 58.1868 13.2977 53.6166 12.3479 48.856L 11.968 47.3326L 5.12913 44.8571C 4.36926 44.4762 3.79936 43.5241 3.79936 42.7624L 3.79936 30.3847C 3.79936 29.623 4.36926 29.0518 5.3191 29.4326L 12.1579 31.9081L 12.5379 30.5752C 13.4877 26.7667 15.1974 23.1486 17.477 20.2922L 18.2369 19.3401L 13.2977 12.8656C 12.7278 12.1039 12.7278 11.1518 13.2977 10.7709L 22.0363 5.2486C 22.6062 4.86775 23.556 5.2486 24.1259 6.0103L 28.8751 12.6752L 30.2049 12.2943C 34.0042 11.3422 37.9936 11.1518 42.1728 11.7231L 43.6926 11.9135L 43.6926 5.05817C 43.6926 4.29647 44.4525 3.7252 45.2123 4.10605L 57.3703 8.48583C 58.1301 8.86668 58.89 9.81881 58.89 10.5805L 58.89 17.4358L 60.4097 18.3879C 64.589 20.8635 68.7683 24.1007 72.3777 27.7188L 73.7075 29.0518L 78.4567 26.005C 79.0266 25.6241 79.9764 26.005 80.5463 26.7667L 89.2849 38.573C 89.8548 39.3347 89.8548 40.2869 89.2849 40.6677L 84.5357 43.7145L 85.2955 45.2379C 87.5751 49.8081 89.2849 54.3783 90.2347 59.139L 90.6146 60.6624L 97.4535 63.1379C 98.2133 63.5188 98.9732 64.2805 98.9732 65.2326L 98.9732 77.4198L 98.7832 77.4198Z"/>
<path id="path1_fill" d="M 51.2913 34.955C 40.8431 31.1465 32.2945 36.4784 32.2945 47.1423C 32.2945 57.8061 40.8431 69.2316 51.2913 73.0401C 61.7395 76.8486 70.2881 71.5167 70.2881 60.8529C 70.2881 50.1891 61.7395 38.7635 51.2913 34.955ZM 51.2913 69.2316C 42.9327 66.1848 36.0939 56.8539 36.0939 48.4752C 36.0939 40.0965 42.9327 35.7167 51.2913 38.7635C 59.6499 41.8103 66.4887 51.1412 66.4887 59.5199C 66.4887 67.8986 59.6499 72.2784 51.2913 69.2316Z"/>
<path id="path2_fill" d="M 87.1582 53.0648L 83.7536 51.8726C 82.9024 48.2959 81.5406 44.7192 79.8383 41.1425L 82.2215 39.6097C 83.0727 39.0987 83.5834 38.0768 83.5834 36.7142C 83.5834 35.522 83.0727 34.1595 82.2215 32.7969L 74.3909 22.2372C 72.6886 19.8527 69.4542 18.6605 67.7519 19.8527L 65.3687 21.3856C 62.4747 18.6605 59.4106 16.276 56.006 14.2322L 56.006 10.8259C 56.006 8.27108 53.9632 5.37567 51.2395 4.35376L 40.3447 0.436441C 37.7913 -0.755788 35.7485 0.606759 35.7485 3.16153L 35.7485 6.5679C 32.5141 6.22726 29.4499 6.39758 26.3858 7.07886L 24.0026 3.84281C 22.13 1.45835 19.0659 0.266122 17.3635 1.45835L 9.53293 6.39758C 8.68177 6.90854 8.17108 7.93045 8.17108 9.12268C 8.17108 10.3149 8.68177 11.6774 9.53293 13.04L 11.9162 16.276C 10.2139 18.6605 9.02224 21.2153 8.00085 24.1107L 4.59623 22.9185C 2.04277 22.0669 0 23.4294 0 25.9842L 0 36.8846C 0 39.4393 2.04277 42.3347 4.76646 43.3567L 8.17108 44.5489C 9.02224 48.1256 10.3841 51.7023 12.0864 55.2789L 9.70316 56.8118C 8.852 57.3228 8.34131 58.3447 8.34131 59.7072C 8.34131 60.8994 8.852 62.262 9.70316 63.6245L 17.5338 74.1843C 19.4063 76.5687 22.4705 77.761 24.1728 76.5687L 26.556 75.0359C 29.4499 77.761 32.5141 80.1454 35.9187 82.1892L 35.9187 85.5956C 35.9187 88.1504 37.9615 91.0458 40.6852 92.0677L 51.58 95.985C 54.1334 97.0069 56.3464 95.6444 56.3464 92.9193L 56.3464 89.5129C 59.5808 89.8536 62.645 89.6832 65.7091 89.002L 68.0923 92.238C 69.9649 94.6225 73.029 95.8147 74.7314 94.6225L 82.562 89.6832C 83.4131 89.1723 83.9238 88.1504 83.9238 86.7878C 83.9238 85.5956 83.4131 84.2331 82.562 82.8705L 80.1787 79.6345C 81.881 77.25 83.0727 74.6952 84.0941 71.7998L 87.4987 72.9921C 90.0521 74.014 92.2651 72.6514 92.2651 69.9263L 92.2651 59.5369C 91.9247 56.8118 89.8819 53.9164 87.1582 53.0648ZM 88.5201 69.245C 88.5201 69.9263 88.0094 70.4373 87.1582 70.0966L 81.0299 67.8825L 80.6894 69.0747C 79.8383 72.4811 78.3062 75.7171 76.2634 78.2719L 75.5825 79.1235L 79.8383 85.0847C 80.349 85.7659 80.349 86.6175 79.8383 86.9582L 72.0077 91.8974C 71.497 92.238 70.6458 91.8974 70.1351 91.2161L 66.0496 85.0847L 64.858 85.4253C 61.4533 86.2769 57.8785 86.4472 54.1334 85.9362L 52.7716 85.7659L 52.7716 91.8974C 52.7716 92.5787 52.0906 93.0896 51.4097 92.749L 40.5149 88.8317C 39.834 88.491 39.1531 87.6394 39.1531 86.9582L 39.1531 80.8267L 37.7913 79.9751C 34.0462 77.761 30.3011 74.8655 27.0667 71.6295L 25.8751 70.4373L 21.6193 73.1624C 21.1086 73.503 20.2575 73.1624 19.7468 72.4811L 11.9162 62.0917C 11.4055 61.4104 11.4055 60.5588 11.9162 60.2182L 16.1719 57.4931L 15.491 56.1305C 13.4482 52.0429 11.9162 47.9553 11.065 43.6973L 10.7245 42.3347L 4.59623 40.1206C 3.91531 39.78 3.40462 38.9284 3.40462 38.2471L 3.40462 27.1764C 3.40462 26.4951 3.91531 25.9842 4.76646 26.3248L 10.8948 28.539L 11.2352 27.3467C 12.0864 23.9404 13.6185 20.7043 15.6612 18.1495L 16.3422 17.298L 11.9162 11.5071C 11.4055 10.8259 11.4055 9.97427 11.9162 9.63363L 19.7468 4.6944C 20.2575 4.35376 21.1086 4.6944 21.6193 5.37567L 25.8751 11.3368L 27.0667 10.9962C 30.4713 10.1446 34.0462 9.97427 37.7913 10.4852L 39.1531 10.6555L 39.1531 4.52408C 39.1531 3.84281 39.834 3.33185 40.5149 3.67249L 51.4097 7.58981C 52.0906 7.93045 52.7716 8.78204 52.7716 9.46331L 52.7716 15.5948L 54.1334 16.4464C 57.8785 18.6605 61.6236 21.5559 64.858 24.792L 66.0496 25.9842L 70.3053 23.2591C 70.816 22.9185 71.6672 23.2591 72.1779 23.9404L 80.0085 34.5001C 80.5192 35.1814 80.5192 36.033 80.0085 36.3736L 75.7527 39.0987L 76.4337 40.4612C 78.4764 44.5489 80.0085 48.6365 80.8597 52.8945L 81.2001 54.257L 87.3284 56.4712C 88.0094 56.8118 88.6903 57.4931 88.6903 58.3447L 88.6903 69.245L 88.5201 69.245Z"/>
<path id="path3_fill" d="M 45.9624 31.2642C 36.5997 27.8578 28.9393 32.6267 28.9393 42.1645C 28.9393 51.7024 36.5997 61.9215 45.9624 65.3278C 55.3251 68.7342 62.9854 63.9653 62.9854 54.4275C 62.9854 44.8896 55.3251 34.6705 45.9624 31.2642ZM 45.9624 61.9215C 38.4722 59.1964 32.3439 50.8508 32.3439 43.3568C 32.3439 35.8628 38.4722 31.9454 45.9624 34.6705C 53.4525 37.3956 59.5808 45.7412 59.5808 53.2352C 59.5808 60.7292 53.4525 64.6466 45.9624 61.9215Z"/>
</defs>
</svg>
