<svg width="76" height="76" viewBox="0 0 76 76" fill="none" xmlns="http://www.w3.org/2000/svg">
<rect width="76" height="76" fill="#E5E5E5"/>
<rect width="1280" height="2866" transform="translate(-406 -274)" fill="white"/>
<rect x="-406" y="-274" width="1280" height="1038" fill="#353535"/>
<circle cx="38" cy="38" r="38" fill="white"/>
<path d="M21 25.5C21 23.567 22.567 22 24.5 22V55.5H52C52 57.433 50.433 59 48.5 59H25C22.7909 59 21 57.2091 21 55V25.5Z" fill="#353535"/>
<path fill-rule="evenodd" clip-rule="evenodd" d="M57 50C57 52.2091 55.2091 54 53 54H30C27.7909 54 26 52.2091 26 50V21C26 18.7909 27.7909 17 30 17H46.3103V23.5714C46.3103 25.7806 48.1012 27.5714 50.3103 27.5714H57V50ZM48.4483 17V21.4571C48.4483 23.6663 50.2391 25.4571 52.4483 25.4571H57L48.4483 17ZM30.2759 32.8571H52.7241V30.7429H30.2759V32.8571ZM52.7241 40.2571H30.2759V38.1429H52.7241V40.2571ZM30.2759 47.6571H52.7241V45.5429H30.2759V47.6571Z" fill="#353535"/>
</svg>
