<svg width="76" height="76" viewBox="0 0 76 76" fill="none" xmlns="http://www.w3.org/2000/svg">
<rect width="76" height="76" fill="#E5E5E5"/>
<rect width="1280" height="2866" transform="translate(-602 -274)" fill="white"/>
<rect x="-602" y="-274" width="1280" height="1038" fill="#353535"/>
<circle cx="38" cy="38" r="38" fill="white"/>
<path d="M26.5078 39.75H17.8418V47.0625H26.1035L26.332 44.0039H30.2344V51H9.98438V47.9238L12.709 47.3965V29.0273L9.98438 28.5V25.4062H30.1992V32.4199H26.2617L26.0332 29.3613H17.8418V35.7949H26.5078V39.75Z" fill="#353535"/>
<path d="M44.5801 47.9238L46.7422 47.502L53.5098 38.0977L46.918 28.9395L44.7734 28.5V25.4062H54.5996V28.5L52.5078 28.7285L56.4629 35.0039L60.4355 28.7285L58.3789 28.5V25.4062H68.2402V28.5L66.0957 28.9395L59.5039 38.0977L66.4121 47.4844L68.6797 47.9238V51H58.6074V47.9238L60.6465 47.7129L56.5332 41.2441L52.4023 47.7129L54.459 47.9238V51H44.5801V47.9238Z" fill="#353535"/>
<rect x="37" y="19" width="2" height="38" fill="#C4C4C4"/>
</svg>
