<svg width="90" height="88" viewBox="0 0 90 88" fill="none" xmlns="http://www.w3.org/2000/svg">
<ellipse cx="43" cy="44.4999" rx="43" ry="43.5" fill="#2F80ED"/>
<path d="M8 55.0399L8 51.9599C8 50.919 8.77963 50.0404 9.815 49.9166L12.3945 49.588C12.6076 48.9321 12.8702 48.2996 13.1769 47.6988L11.5805 45.6445C10.9356 44.8113 11.0099 43.6384 11.7538 42.9151L13.9194 40.7495C14.6358 40.0111 15.8086 39.9369 16.6405 40.5818L18.6961 42.1781C19.297 41.8701 19.9295 41.6075 20.5854 41.3958L20.914 38.8108C21.0405 37.7795 21.9191 36.9999 22.96 36.9999L26.04 36.9999C27.0809 36.9999 27.9595 37.7795 28.0833 38.8149L28.4119 41.3944C29.0678 41.6075 29.7002 41.8701 30.3011 42.1768L32.3554 40.5818C33.1886 39.9355 34.3629 40.0111 35.0861 40.7564L37.2517 42.922C37.9901 43.6384 38.063 44.8126 37.4195 45.6431L35.8217 47.6974C36.1284 48.2983 36.391 48.9308 36.6041 49.588L39.1891 49.9166C40.2204 50.0404 41 50.919 41 51.9599L41 55.0399C41 56.0808 40.2204 56.9594 39.185 57.0831L36.6055 57.4118C36.3924 58.069 36.1297 58.7015 35.8231 59.3024L37.4195 61.3566C38.0644 62.1913 37.9901 63.3628 37.2449 64.086L35.0792 66.2516C34.3629 66.99 33.19 67.0643 32.3581 66.4194L30.3025 64.823C29.7016 65.131 29.0691 65.3936 28.4132 65.6054L28.0846 68.1904C27.9595 69.2203 27.0809 69.9999 26.04 69.9999L22.96 69.9999C21.9191 69.9999 21.0405 69.2203 20.9167 68.1849L20.5881 65.6054C19.9322 65.3923 19.2997 65.1296 18.6989 64.823L16.6446 66.4194C15.8114 67.0656 14.6385 66.99 13.9152 66.2448L11.7496 64.0791C11.0112 63.3628 10.9356 62.1885 11.5819 61.358L13.1783 59.3024C12.8703 58.7015 12.6076 58.069 12.3959 57.4131L9.81087 57.0845C8.77962 56.9594 8 56.0808 8 55.0399ZM14.6825 47.6286C14.6825 47.7428 14.6536 47.8596 14.5959 47.9641C14.1724 48.7218 13.8314 49.5426 13.5839 50.4034C13.5083 50.6674 13.2827 50.8613 13.0105 50.8956L9.9855 51.2806C9.64038 51.3219 9.375 51.6203 9.375 51.9599L9.375 55.0399C9.375 55.3795 9.64037 55.6779 9.97862 55.7178L13.0091 56.1041C13.2814 56.1385 13.5069 56.3324 13.5825 56.5964C13.83 57.4571 14.171 58.278 14.5945 59.0356C14.7292 59.2763 14.7059 59.576 14.5367 59.7919L12.6667 62.1981C12.4522 62.4745 12.4701 62.8623 12.7135 63.0988L14.8929 65.2781C15.1349 65.527 15.5226 65.5463 15.8004 65.3318L18.2066 63.4618C18.4239 63.2926 18.7222 63.2693 18.9629 63.404C19.7205 63.8275 20.5414 64.1685 21.4021 64.416C21.6661 64.4916 21.86 64.7171 21.8944 64.9894L22.2794 68.0144C22.322 68.3595 22.6204 68.6249 22.96 68.6249L26.04 68.6249C26.3796 68.6249 26.678 68.3595 26.7179 68.0213L27.1042 64.9908C27.1386 64.7185 27.3325 64.493 27.5965 64.4174C28.4572 64.1699 29.2781 63.8289 30.0357 63.4054C30.2764 63.2706 30.5747 63.2926 30.792 63.4631L33.1982 65.3331C33.476 65.549 33.8637 65.5298 34.0975 65.2878L36.2769 63.1084C36.5271 62.8678 36.5464 62.4786 36.3305 62.2009L34.4605 59.7946C34.2914 59.576 34.268 59.2776 34.4027 59.037C34.8262 58.2821 35.1659 57.4613 35.4147 56.5978C35.4904 56.3338 35.7159 56.1399 35.9881 56.1055L39.0131 55.7205C39.3596 55.6779 39.625 55.3795 39.625 55.0399L39.625 51.9599C39.625 51.6203 39.3596 51.3219 39.0214 51.282L35.9909 50.8956C35.7186 50.8613 35.4931 50.6674 35.4161 50.4034C35.1686 49.5399 34.8276 48.719 34.4055 47.9641C34.2694 47.7235 34.2941 47.4251 34.4619 47.2065L36.3319 44.8003C36.5477 44.5225 36.5285 44.1361 36.2865 43.901L34.1057 41.7216C33.8637 41.4728 33.476 41.4535 33.1983 41.668L30.792 43.538C30.5748 43.7071 30.2764 43.7305 30.0358 43.5958C29.2781 43.1709 28.4573 42.8313 27.5965 42.5838C27.3325 42.5081 27.1386 42.2826 27.1043 42.0104L26.7193 38.9854C26.678 38.6403 26.3796 38.3749 26.04 38.3749L22.96 38.3749C22.6204 38.3749 22.322 38.6403 22.2821 38.9785L21.8957 42.009C21.8614 42.2813 21.6675 42.5068 21.4035 42.5824C20.5428 42.8299 19.7219 43.1709 18.9643 43.5944C18.7236 43.7291 18.4253 43.7071 18.208 43.5366L15.8018 41.6666C15.524 41.4508 15.1363 41.47 14.9025 41.712L12.7231 43.8914C12.4742 44.132 12.455 44.5184 12.6695 44.7989L14.5395 47.2051C14.633 47.3303 14.6825 47.4788 14.6825 47.6286Z" fill="#BDBDBD"/>
<path fill-rule="evenodd" clip-rule="evenodd" d="M14.5959 47.9641C14.6536 47.8596 14.6825 47.7428 14.6825 47.6286C14.6825 47.4788 14.633 47.3303 14.5395 47.2051L12.6695 44.7989C12.455 44.5184 12.4742 44.132 12.7231 43.8914L14.9025 41.712C15.1363 41.47 15.524 41.4508 15.8018 41.6666L18.208 43.5366C18.4253 43.7071 18.7236 43.7291 18.9643 43.5944C19.7219 43.1709 20.5428 42.8299 21.4035 42.5824C21.6675 42.5068 21.8614 42.2813 21.8957 42.009L22.2821 38.9785C22.322 38.6403 22.6204 38.3749 22.96 38.3749L26.04 38.3749C26.3796 38.3749 26.678 38.6403 26.7193 38.9854L27.1043 42.0104C27.1386 42.2826 27.3325 42.5081 27.5965 42.5838C28.4573 42.8313 29.2781 43.1709 30.0358 43.5958C30.2764 43.7305 30.5748 43.7071 30.792 43.538L33.1983 41.668C33.476 41.4535 33.8637 41.4728 34.1057 41.7216L36.2865 43.901C36.5285 44.1361 36.5477 44.5225 36.3319 44.8003L34.4619 47.2065C34.2941 47.4251 34.2694 47.7235 34.4055 47.9641C34.8276 48.719 35.1686 49.5399 35.4161 50.4034C35.4931 50.6674 35.7186 50.8613 35.9909 50.8956L39.0214 51.282C39.3596 51.3219 39.625 51.6203 39.625 51.9599L39.625 55.0399C39.625 55.3795 39.3596 55.6779 39.0131 55.7205L35.9881 56.1055C35.7159 56.1399 35.4904 56.3338 35.4147 56.5978C35.1659 57.4613 34.8262 58.2821 34.4027 59.037C34.268 59.2776 34.2914 59.576 34.4605 59.7946L36.3305 62.2009C36.5464 62.4786 36.5271 62.8678 36.2769 63.1084L34.0975 65.2878C33.8637 65.5298 33.476 65.549 33.1982 65.3331L30.792 63.4631C30.5747 63.2926 30.2764 63.2706 30.0357 63.4054C29.2781 63.8289 28.4572 64.1699 27.5965 64.4174C27.3325 64.493 27.1386 64.7185 27.1042 64.9908L26.7179 68.0213C26.678 68.3595 26.3796 68.6249 26.04 68.6249L22.96 68.6249C22.6204 68.6249 22.322 68.3595 22.2794 68.0144L21.8944 64.9894C21.86 64.7171 21.6661 64.4916 21.4021 64.416C20.5414 64.1685 19.7205 63.8275 18.9629 63.404C18.7222 63.2693 18.4239 63.2926 18.2066 63.4618L15.8004 65.3318C15.5226 65.5463 15.1349 65.527 14.8929 65.2781L12.7135 63.0988C12.4701 62.8623 12.4522 62.4745 12.6667 62.1981L14.5367 59.7919C14.7059 59.576 14.7292 59.2763 14.5945 59.0356C14.171 58.278 13.83 57.4571 13.5825 56.5964C13.5069 56.3324 13.2814 56.1385 13.0091 56.1041L9.97862 55.7178C9.64037 55.6779 9.375 55.3795 9.375 55.0399L9.375 51.9599C9.375 51.6203 9.64038 51.3219 9.9855 51.2806L13.0105 50.8956C13.2827 50.8613 13.5083 50.6674 13.5839 50.4034C13.8314 49.5426 14.1724 48.7218 14.5959 47.9641ZM27.921 50.4034C29.7543 52.2145 29.7543 55.1912 27.921 57.0023C26.1099 58.7914 23.2132 58.7914 21.4021 57.0023C19.5688 55.1912 19.5688 52.2145 21.4021 50.4034C23.2132 48.6143 26.1099 48.6143 27.921 50.4034Z" fill="#BDBDBD"/>
<path d="M37.9034 71.0561L37.8161 68.5649C37.7866 67.723 38.3922 66.9902 39.2262 66.8607L41.3033 66.5218C41.4571 65.9852 41.6516 65.4662 41.8825 64.9715L40.533 63.3552C39.9878 62.6995 40.0146 61.7487 40.5957 61.1426L42.286 59.3295C42.8445 58.712 43.791 58.6186 44.4822 59.1166L46.1902 60.3496C46.6674 60.0834 47.1716 59.853 47.6961 59.6632L47.8886 57.563C47.9616 56.7253 48.6502 56.0697 49.4921 56.0402L51.9834 55.9529C52.8253 55.9233 53.5581 56.529 53.6875 57.363L54.0265 59.4401C54.5631 59.5939 55.0821 59.7883 55.5768 60.0193L57.1931 58.6709C57.8488 58.1246 58.8007 58.1525 59.4069 58.7347L61.22 60.425C61.8375 60.9835 61.9298 61.9312 61.4328 62.6212L60.1988 64.3281C60.4638 64.8054 60.6942 65.3096 60.8852 65.8351L62.9854 66.0276C63.823 66.0985 64.4786 66.787 64.5081 67.6289L64.5954 70.1202C64.625 70.9621 64.0193 71.6949 63.1853 71.8243L61.1082 72.1633C60.9545 72.701 60.76 73.22 60.529 73.7147L61.8785 75.331C62.4238 75.9878 62.397 76.9375 61.8147 77.5436L60.1245 79.3567C59.566 79.9743 58.6194 80.0676 57.9283 79.5696L56.2203 78.3367C55.743 78.6028 55.2389 78.8332 54.7144 79.0231L54.5219 81.1233C54.4499 81.9598 53.7613 82.6153 52.9194 82.6449L50.4282 82.7322C49.5862 82.7617 48.8535 82.1561 48.724 81.3221L48.385 79.245C47.8485 79.0912 47.3294 78.8967 46.8347 78.6658L45.2184 80.0153C44.5628 80.5616 43.6119 80.5337 43.0058 79.9514L41.1927 78.2612C40.5752 77.7027 40.4807 76.755 40.9798 76.065L42.2128 74.357C41.9466 73.8797 41.7162 73.3756 41.5264 72.8511L39.4262 72.6586C38.5885 72.5866 37.933 71.8981 37.9034 71.0561ZM43.0984 64.872C43.1016 64.9643 43.0816 65.0597 43.0378 65.1459C42.7167 65.7707 42.4642 66.4443 42.2884 67.1475C42.2348 67.3632 42.0579 67.5264 41.8386 67.562L39.4028 67.9592C39.1248 68.0023 38.9186 68.2512 38.9282 68.5259L39.0156 71.0171C39.0252 71.2919 39.2484 71.5257 39.5231 71.5483L41.9853 71.7749C42.2064 71.795 42.3943 71.9454 42.463 72.1568C42.6876 72.846 42.9867 73.5003 43.3507 74.1011C43.4666 74.2919 43.4561 74.535 43.3255 74.7144L41.8812 76.7137C41.7155 76.9434 41.741 77.2565 41.9445 77.4409L43.7691 79.1418C43.9719 79.3363 44.2861 79.3409 44.5047 79.1595L46.3979 77.5787C46.5689 77.4357 46.8095 77.4084 47.008 77.5105C47.6328 77.8316 48.3064 78.0841 49.0097 78.2599C49.2254 78.3136 49.3886 78.4905 49.4241 78.7097L49.8213 81.1456C49.8656 81.4235 50.1144 81.6297 50.3892 81.6201L52.8804 81.5327C53.1551 81.5231 53.3889 81.3 53.4116 81.0252L53.6381 78.5631C53.6582 78.3419 53.8086 78.154 54.02 78.0853C54.7092 77.8607 55.3635 77.5616 55.9643 77.1976C56.1551 77.0818 56.3971 77.0911 56.5776 77.2228L58.577 78.6672C58.8078 78.8339 59.1208 78.8073 59.303 78.6049L61.004 76.7803C61.1996 76.5786 61.2041 76.2633 61.0216 76.0448L59.4408 74.1515C59.2978 73.9795 59.2705 73.7388 59.3726 73.5404C59.6938 72.9178 59.9452 72.2442 60.122 71.5387C60.1757 71.323 60.3526 71.1598 60.5718 71.1243L63.0077 70.7271C63.2867 70.6828 63.4929 70.4339 63.4833 70.1592L63.3959 67.6679C63.3863 67.3932 63.1632 67.1594 62.8884 67.1368L60.4263 66.9102C60.2051 66.8901 60.0172 66.7397 59.9474 66.5283C59.7227 65.8369 59.4236 65.1826 59.0608 64.584C58.9439 64.3932 58.9554 64.1512 59.0849 63.9696L60.5292 61.9703C60.6959 61.7395 60.6694 61.4275 60.467 61.2442L58.6413 59.5433C58.4385 59.3488 58.1243 59.3443 57.9057 59.5256L56.0125 61.1064C55.8415 61.2494 55.6009 61.2768 55.4024 61.1746C54.7776 60.8524 54.104 60.601 53.4007 60.4252C53.185 60.3715 53.0218 60.1946 52.9863 59.9754L52.5891 57.5396C52.5459 57.2616 52.2971 57.0554 52.0224 57.065L49.5311 57.1524C49.2564 57.162 49.0226 57.3851 48.9999 57.6599L48.7734 60.122C48.7533 60.3432 48.6029 60.5311 48.3915 60.5998C47.7023 60.8244 47.048 61.1235 46.4472 61.4875C46.2564 61.6033 46.0144 61.594 45.8339 61.4622L43.8345 60.0179C43.6038 59.8512 43.2907 59.8778 43.1085 60.0801L41.4075 61.9047C41.213 62.1064 41.2084 62.4195 41.3899 62.6403L42.9707 64.5335C43.0499 64.6321 43.0941 64.7508 43.0984 64.872Z" fill="white"/>
<path fill-rule="evenodd" clip-rule="evenodd" d="M43.0378 65.1459C43.0816 65.0597 43.1016 64.9643 43.0984 64.872C43.0941 64.7508 43.0499 64.6321 42.9707 64.5335L41.3899 62.6403C41.2084 62.4195 41.213 62.1064 41.4075 61.9047L43.1085 60.0801C43.2907 59.8778 43.6038 59.8512 43.8345 60.0179L45.8339 61.4622C46.0144 61.594 46.2564 61.6033 46.4472 61.4875C47.048 61.1235 47.7023 60.8244 48.3915 60.5998C48.6029 60.5311 48.7533 60.3432 48.7734 60.122L48.9999 57.6599C49.0226 57.3851 49.2564 57.162 49.5311 57.1524L52.0224 57.065C52.2971 57.0554 52.5459 57.2616 52.5891 57.5396L52.9863 59.9754C53.0218 60.1946 53.185 60.3715 53.4007 60.4252C54.104 60.601 54.7776 60.8524 55.4024 61.1746C55.6009 61.2768 55.8415 61.2494 56.0125 61.1064L57.9057 59.5256C58.1243 59.3443 58.4385 59.3488 58.6413 59.5433L60.467 61.2442C60.6694 61.4275 60.6959 61.7395 60.5292 61.9703L59.0849 63.9696C58.9554 64.1512 58.9439 64.3932 59.0608 64.584C59.4236 65.1826 59.7227 65.8369 59.9474 66.5283C60.0172 66.7397 60.2051 66.8901 60.4263 66.9102L62.8884 67.1368C63.1632 67.1594 63.3863 67.3932 63.3959 67.6679L63.4833 70.1592C63.4929 70.4339 63.2867 70.6828 63.0077 70.7271L60.5718 71.1243C60.3526 71.1598 60.1757 71.323 60.122 71.5387C59.9452 72.2442 59.6938 72.9178 59.3726 73.5404C59.2705 73.7388 59.2978 73.9795 59.4408 74.1515L61.0216 76.0448C61.2041 76.2633 61.1996 76.5786 61.004 76.7803L59.303 78.6049C59.1208 78.8073 58.8078 78.8339 58.577 78.6672L56.5776 77.2228C56.3971 77.0911 56.1551 77.0818 55.9643 77.1976C55.3635 77.5616 54.7092 77.8607 54.02 78.0853C53.8086 78.154 53.6582 78.3419 53.6381 78.5631L53.4116 81.0252C53.3889 81.3 53.1551 81.5231 52.8804 81.5327L50.3892 81.6201C50.1144 81.6297 49.8656 81.4235 49.8213 81.1456L49.4241 78.7097C49.3886 78.4905 49.2254 78.3136 49.0097 78.2599C48.3064 78.0841 47.6328 77.8316 47.008 77.5105C46.8095 77.4084 46.5689 77.4357 46.3979 77.5787L44.5047 79.1595C44.2861 79.3409 43.9719 79.3363 43.7691 79.1418L41.9445 77.4409C41.741 77.2565 41.7155 76.9434 41.8812 76.7137L43.3255 74.7144C43.4561 74.535 43.4666 74.2919 43.3507 74.1011C42.9867 73.5003 42.6876 72.846 42.463 72.1568C42.3943 71.9454 42.2064 71.795 41.9853 71.7749L39.5231 71.5483C39.2484 71.5257 39.0252 71.2919 39.0156 71.0171L38.9282 68.5259C38.9186 68.2512 39.1248 68.0023 39.4028 67.9592L41.8386 67.562C42.0579 67.5264 42.2348 67.3632 42.2884 67.1475C42.4642 66.4443 42.7167 65.7707 43.0378 65.1459ZM53.885 66.7409C55.4193 68.1538 55.5037 70.5616 54.0722 72.0785C52.658 73.5769 50.315 73.6591 48.7994 72.2633C47.2651 70.8504 47.1807 68.4427 48.6122 66.9258C50.0264 65.4273 52.3694 65.3452 53.885 66.7409Z" fill="white"/>
<path d="M65.6302 56.2364L60.6129 56.78C58.9174 56.9638 57.3476 55.8527 56.962 54.193L55.9683 50.0616C54.862 49.8312 53.785 49.5163 52.7517 49.1244L49.689 52.0797C48.4462 53.2741 46.5224 53.3606 45.2121 52.2801L41.2995 49.1451C39.9694 48.112 39.64 46.2202 40.5427 44.7554L42.778 41.135C42.1695 40.2135 41.6293 39.2326 41.1678 38.2047L36.8984 38.1273C35.196 38.1039 33.7699 36.8145 33.585 35.124L33.0377 30.1218C32.8528 28.4313 33.9666 26.8667 35.6313 26.4829L39.7749 25.4939C40.0055 24.391 40.3209 23.3174 40.7137 22.2874L37.7504 19.2326C36.5496 17.9934 36.4642 16.073 37.5497 14.7668L40.6926 10.8673C41.7284 9.54163 43.6283 9.216 45.0955 10.1145L48.7258 12.3468C49.6501 11.7428 50.6338 11.2046 51.6666 10.7424L51.7426 6.48609C51.761 4.78938 53.0537 3.36809 54.7493 3.18436L59.7666 2.64068C61.4622 2.45695 63.032 3.56805 63.4175 5.22777L64.4112 9.35916C65.5197 9.58928 66.5967 9.90417 67.6301 10.2961L70.6928 7.34079C71.9378 6.14612 73.8593 6.05992 75.1699 7.14262L79.0825 10.2776C80.4126 11.3107 80.742 13.2025 79.8393 14.6674L77.6041 18.2877C78.2126 19.2092 78.7528 20.1901 79.2142 21.218L83.4836 21.2954C85.1835 21.3168 86.6096 22.6062 86.7946 24.2967L87.3418 29.2989C87.5268 30.9894 86.4129 32.554 84.7483 32.9378L80.6047 33.9268C80.374 35.0297 80.0586 36.1033 79.6659 37.1333L82.6314 40.1878C83.8322 41.4271 83.9174 43.3453 82.8319 44.6515L79.6889 48.551C78.6531 49.8766 76.7537 50.2067 75.286 49.3037L71.6537 47.0739C70.7296 47.6802 69.746 48.2184 68.7152 48.678L68.6392 52.9344C68.6186 54.6313 67.3258 56.0526 65.6302 56.2364ZM52.37 46.6915C52.5559 46.6713 52.7514 46.6976 52.9319 46.7729C54.2413 47.327 55.6391 47.7359 57.0852 47.986C57.5287 48.0622 57.8846 48.3942 57.989 48.8303L59.1536 53.6753C59.2822 54.2285 59.8154 54.6068 60.3686 54.5469L65.3859 54.0032C65.9392 53.9433 66.3781 53.4596 66.3829 52.9032L66.4739 47.9131C66.4815 47.4649 66.7572 47.0644 67.1738 46.895C68.532 46.3411 69.8086 45.6424 70.9676 44.8208C71.3356 44.5595 71.828 44.5446 72.2097 44.7811L76.4618 47.3935C76.9501 47.6931 77.5786 47.5956 77.9206 47.1586L81.0835 43.2343C81.446 42.7974 81.4084 42.1642 81.0096 41.751L77.5359 38.1731C77.2218 37.8501 77.1307 37.3696 77.3074 36.955C77.8627 35.6498 78.2723 34.2564 78.5225 32.8148C78.5988 32.3726 78.9317 32.018 79.3691 31.9141L84.2284 30.7548C84.783 30.6247 85.1623 30.0932 85.102 29.5417L84.5547 24.5394C84.4943 23.9878 84.009 23.5501 83.4509 23.545L78.4456 23.4524C77.996 23.4446 77.5942 23.1696 77.4241 22.7542C76.868 21.3999 76.1667 20.1269 75.3422 18.9712C75.0799 18.6042 75.0627 18.1157 75.3019 17.7328L77.9205 13.4946C78.2228 13.0054 78.1226 12.3791 77.6868 12.0422L73.7494 8.88733C73.3129 8.52337 72.6756 8.56079 72.2615 8.96042L68.674 12.4223C68.348 12.7355 67.8661 12.8262 67.4501 12.6498C66.1452 12.0952 64.7477 11.6885 63.2968 11.4368C62.8533 11.3605 62.4974 11.0285 62.393 10.5924L61.2284 5.74745C61.0974 5.19222 60.5642 4.81389 60.0109 4.87384L54.9936 5.41751C54.4404 5.47746 54.0015 5.96113 53.9966 6.51752L53.9057 11.5076C53.8981 11.9558 53.6223 12.3563 53.2059 12.5279C51.8433 13.0823 50.5667 13.7811 49.412 14.5999C49.0442 14.8634 48.5537 14.8759 48.1678 14.6421L43.9158 12.0297C43.4249 11.7281 42.799 11.8276 42.4589 12.2621L39.2962 16.1886C38.9338 16.6256 38.9714 17.2587 39.3701 17.672L42.8439 21.2499C43.158 21.5729 43.2491 22.0534 43.0724 22.4679C42.5149 23.7734 42.1075 25.1666 41.8572 26.6082C41.781 27.0503 41.4481 27.405 41.0107 27.5089L36.1514 28.6681C35.5965 28.796 35.2172 29.3275 35.2776 29.8791L35.8248 34.8813C35.8852 35.4329 36.3705 35.8707 36.9286 35.8757L41.9339 35.9683C42.3835 35.9761 42.7853 36.2511 42.9554 36.6666C43.5115 38.0208 44.2129 39.2938 45.0374 40.4495C45.2996 40.8166 45.3168 41.305 45.0777 41.688L42.459 45.9261C42.1567 46.4153 42.257 47.0416 42.6927 47.3785L46.6302 50.5334C47.0663 50.8951 47.6992 50.8582 48.118 50.4603L51.7055 46.9985C51.8927 46.8245 52.1258 46.7179 52.37 46.6915Z" fill="white"/>
<path fill-rule="evenodd" clip-rule="evenodd" d="M67.2107 28.219C67.9127 32.2603 65.1956 36.1039 61.1418 36.8038C57.0881 37.5037 53.2327 34.7949 52.5306 30.7536C51.8285 26.7122 54.5456 22.8686 58.5994 22.1687C62.6532 21.4688 66.5086 24.1776 67.2107 28.219ZM59.0429 24.8533C56.3797 25.3195 54.4627 27.8321 55.0185 30.4702C55.5561 33.0222 58.0764 34.9333 60.6527 34.4823C63.6551 33.9567 65.4356 31.9363 64.6771 28.4642C64.1772 26.1763 62.0971 24.3187 59.0429 24.8533Z" fill="white"/>
</svg>
