<svg width="90" height="90" viewBox="0 0 90 90" fill="none" xmlns="http://www.w3.org/2000/svg">
<circle cx="45" cy="45" r="45" fill="#2F80ED"/>
<path d="M47.748 85C46.2558 85 44.925 84.6636 43.7556 83.9907C42.5863 83.3178 41.668 82.3445 41.0008 81.0708C40.3336 79.7891 40 78.235 40 76.4085V75.6035C40 73.9212 40.3049 72.4352 40.9147 71.1455C41.5317 69.8478 42.4069 68.8344 43.5404 68.1055C44.6811 67.3685 46.0334 67 47.5974 67C48.6878 67 49.7245 67.1642 50.7073 67.4927C51.6974 67.8131 52.6157 68.3658 53.4622 69.1509V73.6569H50.7181L50.3415 71.0734C49.9756 70.7931 49.581 70.5728 49.1577 70.4126C48.7345 70.2523 48.2574 70.1722 47.7265 70.1722C46.5356 70.1722 45.5779 70.6449 44.8533 71.5901C44.1287 72.5274 43.7664 73.8571 43.7664 75.5794V76.4085C43.7664 77.482 43.935 78.4272 44.2722 79.2443C44.6094 80.0534 45.0793 80.6862 45.6819 81.1429C46.2917 81.5995 46.9948 81.8278 47.7911 81.8278C48.2143 81.8278 48.6448 81.7797 49.0824 81.6836C49.52 81.5794 49.9433 81.4433 50.3522 81.275L50.7289 78.7997H53.4837V83.2096C52.8596 83.6903 52.0633 84.1108 51.0948 84.4713C50.1262 84.8238 49.0107 85 47.748 85Z" fill="white"/>
<path d="M61.3286 85C60.0516 85 58.9181 84.8638 57.9281 84.5915C56.9381 84.3191 55.9516 83.8064 54.9688 83.0534V78.5113H57.885L58.2079 80.8425C58.4374 81.1308 58.8428 81.3752 59.4239 81.5754C60.005 81.7677 60.6399 81.8638 61.3286 81.8638C62.785 81.8638 63.5131 81.2951 63.5131 80.1575C63.5131 79.6368 63.3338 79.1963 62.9751 78.8358C62.6164 78.4673 61.9922 78.0908 61.1026 77.7063C59.7611 77.2256 58.6598 76.737 57.799 76.2403C56.9381 75.7437 56.296 75.1549 55.8727 74.474C55.4566 73.7931 55.2486 72.9479 55.2486 71.9386C55.2486 70.9693 55.4961 70.1242 55.9911 69.4032C56.4861 68.6742 57.1676 68.1015 58.0357 67.6849C58.9038 67.2684 59.8974 67.0481 61.0165 67.024C62.2935 66.992 63.4234 67.1362 64.4063 67.4566C65.3892 67.769 66.2572 68.2457 67.0105 68.8865V73.1041H64.2126L63.7714 70.761C63.5275 70.6248 63.1795 70.5007 62.7276 70.3885C62.2756 70.2764 61.7949 70.2203 61.2856 70.2203C60.6327 70.2203 60.0911 70.3645 59.6606 70.6529C59.2302 70.9413 59.015 71.3738 59.015 71.9506C59.015 72.263 59.0975 72.5434 59.2625 72.7917C59.4275 73.032 59.718 73.2764 60.1341 73.5247C60.5502 73.765 61.1313 74.0454 61.8774 74.3658C63.6566 74.9506 65.0053 75.6836 65.9236 76.5648C66.8491 77.4379 67.3118 78.6275 67.3118 80.1335C67.3118 81.1669 67.0607 82.0481 66.5585 82.777C66.0563 83.498 65.3569 84.0507 64.4601 84.4352C63.5633 84.8117 62.5195 85 61.3286 85Z" fill="white"/>
<path d="M75.0168 85C73.7398 85 72.6063 84.8638 71.6163 84.5915C70.6262 84.3191 69.6398 83.8064 68.657 83.0534V78.5113H71.5732L71.8961 80.8425C72.1256 81.1308 72.531 81.3752 73.1121 81.5754C73.6932 81.7677 74.3281 81.8638 75.0168 81.8638C76.4731 81.8638 77.2013 81.2951 77.2013 80.1575C77.2013 79.6368 77.022 79.1963 76.6633 78.8358C76.3046 78.4673 75.6804 78.0908 74.7908 77.7063C73.4493 77.2256 72.348 76.737 71.4871 76.2403C70.6262 75.7437 69.9842 75.1549 69.5609 74.474C69.1448 73.7931 68.9367 72.9479 68.9367 71.9386C68.9367 70.9693 69.1843 70.1242 69.6793 69.4032C70.1743 68.6742 70.8558 68.1015 71.7239 67.6849C72.5919 67.2684 73.5856 67.0481 74.7047 67.024C75.9817 66.992 77.1116 67.1362 78.0945 67.4566C79.0773 67.769 79.9454 68.2457 80.6987 68.8865V73.1041H77.9008L77.4596 70.761C77.2157 70.6248 76.8677 70.5007 76.4157 70.3885C75.9638 70.2764 75.4831 70.2203 74.9738 70.2203C74.3209 70.2203 73.7793 70.3645 73.3488 70.6529C72.9184 70.9413 72.7032 71.3738 72.7032 71.9506C72.7032 72.263 72.7857 72.5434 72.9507 72.7917C73.1157 73.032 73.4062 73.2764 73.8223 73.5247C74.2384 73.765 74.8195 74.0454 75.5656 74.3658C77.3448 74.9506 78.6935 75.6836 79.6118 76.5648C80.5373 77.4379 81 78.6275 81 80.1335C81 81.1669 80.7489 82.0481 80.2467 82.777C79.7445 83.498 79.0451 84.0507 78.1483 84.4352C77.2515 84.8117 76.2077 85 75.0168 85Z" fill="white"/>
<path d="M18.6589 38.4697C17.0253 38.0394 15.8608 37.3548 15.1655 36.4159C14.4786 35.4771 14.1351 34.3387 14.1351 33.0008V30.6184C14.1351 29.8439 13.9508 29.2414 13.5822 28.8111C13.2219 28.3808 12.6607 28.1656 11.8983 28.1656V25.8067C12.6607 25.8067 13.2219 25.5955 13.5822 25.173C13.9508 24.7427 14.1351 24.1324 14.1351 23.3422V20.9598C14.1351 19.622 14.4786 18.4875 15.1655 17.5565C15.8608 16.6176 17.0253 15.933 18.6589 15.5027L19.3626 17.3452C18.6421 17.5878 18.1353 18.022 17.8421 18.6479C17.5573 19.266 17.4148 20.0366 17.4148 20.9598V23.3422C17.4148 24.1559 17.2264 24.8796 16.8494 25.5133C16.4724 26.1393 15.9069 26.6283 15.1529 26.9803C15.9069 27.348 16.4724 27.8488 16.8494 28.4825C17.2264 29.1084 17.4148 29.8204 17.4148 30.6184V33.0008C17.4148 33.924 17.5573 34.6947 17.8421 35.3128C18.1353 35.9387 18.6421 36.3729 19.3626 36.6154L18.6589 38.4697Z" fill="white"/>
<path d="M56.2393 43.6374C57.8729 43.9279 59.0374 44.39 59.7327 45.0237C60.4196 45.6574 60.7631 46.4258 60.7631 47.3289L60.7631 48.937C60.7631 49.4598 60.9474 49.8665 61.316 50.1569C61.6762 50.4474 62.2375 50.5926 62.9999 50.5926L62.9999 52.1849C62.2375 52.1849 61.6762 52.3275 61.316 52.6127C60.9474 52.9031 60.7631 53.3151 60.7631 53.8485L60.7631 55.4566C60.7631 56.3596 60.4196 57.1254 59.7327 57.7538C59.0374 58.3876 57.8729 58.8497 56.2393 59.1401L55.5356 57.8964C56.2561 57.7327 56.7629 57.4396 57.0561 57.0171C57.3409 56.5999 57.4833 56.0797 57.4833 55.4566L57.4833 53.8485C57.4833 53.2992 57.6718 52.8107 58.0488 52.3829C58.4258 51.9604 58.9913 51.6304 59.7453 51.3927C58.9913 51.1445 58.4258 50.8065 58.0488 50.3788C57.6718 49.9563 57.4833 49.4757 57.4833 48.937L57.4833 47.3289C57.4833 46.7057 57.3409 46.1855 57.0561 45.7683C56.7629 45.3458 56.2561 45.0527 55.5356 44.889L56.2393 43.6374Z" fill="white"/>
<rect x="23.3818" y="17.7993" width="21.2445" height="4.5934" rx="2.2967" fill="#BDBDBD"/>
<rect x="23.3818" y="25.8379" width="39.6181" height="4.5934" rx="2.2967" fill="#BDBDBD"/>
<rect x="23.3818" y="44.2114" width="27.5604" height="4.5934" rx="2.2967" fill="#BDBDBD"/>
<rect x="23.3818" y="52.8242" width="18.9478" height="4.5934" rx="2.2967" fill="#BDBDBD"/>
<rect x="23.3818" y="33.8765" width="13.206" height="4.5934" rx="2.2967" fill="#BDBDBD"/>
<rect x="38.3103" y="33.8765" width="21" height="4.5934" rx="2.2967" fill="#BDBDBD"/>
</svg>
