<svg width="76" height="76" viewBox="0 0 76 76" fill="none" xmlns="http://www.w3.org/2000/svg">
<rect width="76" height="76" fill="#E5E5E5"/>
<rect width="1280" height="2866" transform="translate(-796 -274)" fill="white"/>
<rect x="-796" y="-274" width="1280" height="1038" fill="#353535"/>
<path fill-rule="evenodd" clip-rule="evenodd" d="M38 0C17.0288 0 0 17.4333 0 38.956C0 56.1741 10.8938 70.7616 25.9865 75.927C27.876 76.2857 28.5758 75.09 28.5758 74.0378C28.5758 73.1051 28.5525 70.6659 28.5292 67.4136C17.9619 69.7572 15.7225 62.2004 15.7225 62.2004C13.9963 57.7046 11.5003 56.5088 11.5003 56.5088C8.04787 54.0935 11.7569 54.1413 11.7569 54.1413C15.5592 54.4283 17.5887 58.1589 17.5887 58.1589C20.9711 64.1135 26.4764 62.3916 28.6458 61.3872C28.9957 58.8763 29.9755 57.1545 31.0485 56.174C22.6041 55.1935 13.7397 51.8456 13.7397 36.9233C13.7397 32.6666 15.2093 29.199 17.6587 26.4728C17.2621 25.4924 15.9558 21.5226 18.0319 16.1659C18.0319 16.1659 21.2277 15.1136 28.4825 20.1595C31.515 19.2986 34.7575 18.8682 38 18.8443C41.2192 18.8682 44.485 19.2986 47.5175 20.1595C54.7723 15.1136 57.9681 16.1659 57.9681 16.1659C60.0442 21.5226 58.7379 25.4924 58.3413 26.4728C60.7674 29.199 62.237 32.6666 62.237 36.9233C62.237 51.8934 53.3493 55.1697 44.8815 56.1501C46.2345 57.3458 47.4708 59.7372 47.4708 63.3722C47.4708 68.5854 47.4242 72.7704 47.4242 74.0617C47.4242 75.1139 48.1007 76.3096 50.0368 75.927C65.1295 70.7616 76 56.174 76 38.9798C76 17.4333 58.9712 0 38 0Z" fill="white"/>
</svg>
