<svg viewBox="0 0 200 200" version="1.1" xmlns="http://www.w3.org/2000/svg"
     xmlns:xlink="http://www.w3.org/1999/xlink">
    <title>JS</title>
    <g id="Canvas" transform="translate(-350 -2128)">
        <g id="Unofficial_JavaScript_logo_2">
            <g id="Vector">
                <mask id="mask0_outline_ins">
                    <use xlink:href="#path0_fill" fill="white" transform="translate(350 2128)"/>
                </mask>
                <g mask="url(#mask0_outline_ins)">
                    <use xlink:href="#path1_stroke_2x" transform="translate(350 2128)" fill="#2F80ED"/>
                </g>
            </g>
            <g id="Vector">
                <mask id="mask1_outline_ins">
                    <use xlink:href="#path2_fill" fill="white" transform="translate(402.66 2218.76)"/>
                </mask>
                <g mask="url(#mask1_outline_ins)">
                    <use xlink:href="#path3_stroke_2x" transform="translate(402.66 2218.76)" fill="#2F80ED"/>
                </g>
            </g>
        </g>
    </g>
    <defs>
        <path id="path0_fill" d="M 200 0L 0 0L 0 200L 200 200L 200 0Z"/>
        <path id="path1_stroke_2x"
              d="M 0 0L 0 -3L -3 -3L -3 0L 0 0ZM 200 0L 203 0L 203 -3L 200 -3L 200 0ZM 200 200L 200 203L 203 203L 203 200L 200 200ZM 0 200L -3 200L -3 203L 0 203L 0 200ZM 0 3L 200 3L 200 -3L 0 -3L 0 3ZM 197 0L 197 200L 203 200L 203 0L 197 0ZM 200 197L 0 197L 0 203L 200 203L 200 197ZM 3 200L 3 0L -3 0L -3 200L 3 200Z"/>
        <path id="path2_fill"
              d="M 81.6889 65.4921C 85.7175 72.0698 90.9587 76.9048 100.229 76.9048C 108.016 76.9048 112.99 73.0127 112.99 67.6349C 112.99 61.1905 107.879 58.9079 99.3079 55.1587L 94.6095 53.1429C 81.0476 47.3651 72.0381 40.127 72.0381 24.8254C 72.0381 10.7302 82.7778 4.6503e-06 99.5619 4.6503e-06C 111.511 4.6503e-06 120.102 4.15873 126.292 15.0476L 111.657 24.4444C 108.435 18.6667 104.959 16.3905 99.5619 16.3905C 94.0571 16.3905 90.5683 19.8825 90.5683 24.4444C 90.5683 30.0825 94.0603 32.3651 102.124 35.8571L 106.822 37.8698C 122.79 44.7175 131.806 51.6984 131.806 67.3936C 131.806 84.3143 118.514 93.5841 100.663 93.5841C 83.2095 93.5841 71.9333 85.2667 66.4159 74.3651L 81.6889 65.4921ZM 15.2984 67.1206C 18.2508 72.3587 20.9365 76.7873 27.3937 76.7873C 33.5683 76.7873 37.4635 74.3714 37.4635 64.9778L 37.4635 1.07301L 56.2571 1.07301L 56.2571 65.2317C 56.2571 84.6921 44.8476 93.5492 28.1937 93.5492C 13.146 93.5492 4.43175 85.7619 1.5501e-06 76.3825L 15.2984 67.1206Z"/>
        <path id="path3_stroke_2x"
              d="M 81.6889 65.4921L 84.2472 63.9252L 82.7163 61.4256L 80.1819 62.8981L 81.6889 65.4921ZM 99.3079 55.1587L 100.51 52.4102L 100.501 52.4059L 100.491 52.4018L 99.3079 55.1587ZM 94.6095 53.1429L 95.7924 50.3859L 95.7853 50.3829L 94.6095 53.1429ZM 126.292 15.0476L 127.913 17.572L 130.305 16.0362L 128.9 13.5649L 126.292 15.0476ZM 111.657 24.4444L 109.037 25.9057L 110.592 28.6936L 113.278 26.9689L 111.657 24.4444ZM 102.124 35.8571L 100.932 38.6101L 100.943 38.6148L 102.124 35.8571ZM 106.822 37.8698L 108.005 35.1127L 108.004 35.1122L 106.822 37.8698ZM 66.4159 74.3651L 64.9089 71.7711L 62.4605 73.1934L 63.7392 75.7198L 66.4159 74.3651ZM 15.2984 67.1206L 17.9119 65.6476L 16.3922 62.9515L 13.7447 64.5543L 15.2984 67.1206ZM 37.4635 1.07301L 37.4635 -1.92699L 34.4635 -1.92699L 34.4635 1.07301L 37.4635 1.07301ZM 56.2571 1.07301L 59.2571 1.07301L 59.2571 -1.92699L 56.2571 -1.92699L 56.2571 1.07301ZM 1.5501e-06 76.3825L -1.55369 73.8162L -3.86846 75.2176L -2.71245 77.6642L 1.5501e-06 76.3825ZM 79.1306 67.0589C 81.2543 70.5139 83.9889 73.8414 87.3009 76.1421C 90.6327 78.3835 95.1133 79.8661 100.229 79.9048L 100.229 73.9048C 96.074 73.9435 93.2991 73.0085 90.6856 71.188C 88.0524 69.4268 86.152 67.048 84.2472 63.9252L 79.1306 67.0589ZM 100.229 79.9048C 104.591 79.9048 108.458 78.8173 111.318 76.6956C 114.236 74.5303 115.99 71.3477 115.99 67.6349L 109.99 67.6349C 109.99 69.2999 109.258 70.7523 107.742 71.8774C 106.167 73.0462 103.654 73.9048 100.229 73.9048L 100.229 79.9048ZM 115.99 67.6349C 115.99 63.3749 114.193 60.3639 111.216 58.0267C 108.499 55.893 104.667 54.2283 100.51 52.4102L 98.1057 57.9073C 102.52 59.8384 105.529 61.1896 107.511 62.7455C 109.233 64.098 109.99 65.4505 109.99 67.6349L 115.99 67.6349ZM 100.491 52.4018L 95.7924 50.3859L 93.4266 55.8998L 98.1251 57.9157L 100.491 52.4018ZM 95.7853 50.3829C 89.1682 47.5697 84.0809 44.6745 80.4811 40.5633C 77.0657 36.7181 75.0381 31.8119 75.0381 24.8254L 69.0381 24.8254C 69.0381 33.1405 71.5152 39.5041 75.9951 44.5478C 80.2905 49.3255 86.4889 52.9382 93.4337 55.9028L 95.7853 50.3829ZM 75.0381 24.8254C 75.0381 12.5906 84.2235 3 99.5619 3L 99.5619 -3C 81.3321 -3 69.0381 8.86973 69.0381 24.8254L 75.0381 24.8254ZM 99.5619 3C 105.237 2.98505 109.646 3.85892 113.653 6.07603C 117.695 8.23642 120.803 11.4109 123.684 16.5303L 128.9 13.5649C 125.591 7.7955 121.308 3.44613 116.52 0.80493C 111.697 -1.77955 105.836 -2.98504 99.5619 -3L 99.5619 3ZM 124.671 12.5232L 110.036 21.92L 113.278 26.9689L 127.913 17.572L 124.671 12.5232ZM 114.277 22.9832C 112.537 19.863 110.575 17.4039 108.083 15.7509C 105.698 14.2183 102.636 13.4141 99.5619 13.3905L 99.5619 19.3905C 101.885 19.3669 103.26 19.7007 104.767 20.7507C 106.168 21.6803 107.555 23.2481 109.037 25.9057L 114.277 22.9832ZM 99.5619 13.3905C 92.6249 13.3905 87.5683 18.0097 87.5683 24.4444L 93.5683 24.4444C 93.5683 21.7554 95.4894 19.3905 99.5619 19.3905L 99.5619 13.3905ZM 87.5683 24.4444C 87.5683 28.0526 88.7574 30.8575 91.3029 33.1742C 93.6044 35.2688 96.9451 36.8836 100.932 38.6101L 103.316 33.1042C 99.239 31.3386 96.802 30.0661 95.3415 28.7369C 94.1251 27.6298 93.5683 26.4744 93.5683 24.4444L 87.5683 24.4444ZM 100.943 38.6148L 105.641 40.6275L 108.004 35.1122L 103.305 33.0995L 100.943 38.6148ZM 105.64 40.627C 113.55 44.0191 119.305 47.2766 123.107 51.3586C 126.778 55.3002 128.806 60.2092 128.806 67.3936L 134.806 67.3936C 134.806 58.8828 132.327 52.4538 127.498 47.2692C 122.8 42.225 116.063 38.5682 108.005 35.1127L 105.64 40.627ZM 128.806 67.3936C 128.806 74.9849 125.865 80.6526 121.058 84.4893C 116.171 88.3893 109.106 90.5841 100.663 90.5841L 100.663 96.5841C 110.072 96.5841 118.579 94.144 124.8 89.179C 131.101 84.1506 134.806 76.723 134.806 67.3936L 128.806 67.3936ZM 100.663 90.5841C 84.3069 90.5841 74.0842 82.8731 69.0926 73.0104L 63.7392 75.7198C 69.7824 87.6603 82.1122 96.5841 100.663 96.5841L 100.663 90.5841ZM 67.9229 76.9591L 83.1959 68.0861L 80.1819 62.8981L 64.9089 71.7711L 67.9229 76.9591ZM 12.685 68.5937C 14.1721 71.232 15.83 74.016 17.9614 76.0893C 20.3351 78.3529 23.3511 79.7873 27.3937 79.7873L 27.3937 73.7873C 24.9791 73.7873 23.4237 73.0074 22.1021 71.7472C 20.5382 70.2967 19.3771 68.2474 17.9119 65.6476L 12.685 68.5937ZM 27.3937 79.7873C 30.7829 79.7873 34.3 79.1399 36.8849 76.5068C 39.4422 73.9018 40.4635 69.9863 40.4635 64.9778L 34.4635 64.9778C 34.4635 69.3629 33.5372 71.3522 32.6032 72.3035C 31.6969 73.2268 30.179 73.7873 27.3937 73.7873L 27.3937 79.7873ZM 40.4635 64.9778L 40.4635 1.07301L 34.4635 1.07301L 34.4635 64.9778L 40.4635 64.9778ZM 37.4635 4.07301L 56.2571 4.07301L 56.2571 -1.92699L 37.4635 -1.92699L 37.4635 4.07301ZM 53.2571 1.07301L 53.2571 65.2317L 59.2571 65.2317L 59.2571 1.07301L 53.2571 1.07301ZM 53.2571 65.2317C 53.2571 74.3694 50.5944 80.567 46.4138 84.5041C 42.2011 88.4716 36.0174 90.5492 28.1937 90.5492L 28.1937 96.5492C 37.0239 96.5492 44.8719 94.1982 50.5274 88.872C 56.2151 83.5155 59.2571 75.5544 59.2571 65.2317L 53.2571 65.2317ZM 28.1937 90.5492C 14.4443 90.5492 6.7102 83.5618 2.71246 75.1009L -2.71245 77.6642C 2.15329 87.9621 11.8478 96.5492 28.1937 96.5492L 28.1937 90.5492ZM 1.5537 78.9489L 16.8521 69.687L 13.7447 64.5543L -1.55369 73.8162L 1.5537 78.9489Z"/>
    </defs>
</svg>
