<svg width="90" height="84" viewBox="0 0 90 84" fill="none" xmlns="http://www.w3.org/2000/svg">
<ellipse cx="42" cy="41.756" rx="42" ry="41.5" fill="#2F80ED"/>
<path d="M40.9373 24.9058C39.2178 26.6115 35.6688 31.1805 32.4953 38.8224C30.5843 38.6409 25.9474 37.9666 23.7422 36.8225C21.8756 35.8541 22.4402 34.5961 22.9038 33.9393C23.3777 33.2679 28.8998 27.0328 32.0743 24.0636L40.9373 24.9058Z" stroke="white" stroke-width="4"/>
<path d="M61.5021 47.1288C59.6732 48.7557 54.8518 52.0336 46.9907 54.6937C47.0316 56.6601 47.3638 61.4493 48.3437 63.7897C49.1732 65.7708 50.4703 65.2898 51.16 64.8661C51.865 64.4331 58.4944 59.2661 61.6914 56.2489L61.5021 47.1288Z" stroke="white" stroke-width="4"/>
<path d="M78.1282 11.8669C80.2048 12.8082 80.7917 13.5072 81.2407 15.5736C82.3993 35.0099 57.435 51.9747 44.6374 54.5094C44.1877 54.5985 43.8279 54.6557 43.3623 54.4357C43.0153 54.2718 42.7137 53.969 42.7137 53.969L32.4986 41.5786C32.4986 41.5786 32.3008 41.2943 32.2216 40.9653C32.1215 40.5492 32.1953 40.2175 32.3248 39.8789C42.6696 12.8444 69.5475 9.24539 78.1282 11.8669Z" stroke="white" stroke-width="4"/>
<path d="M68.6504 26.4467C68.3988 29.0944 66.2049 30.8639 63.9519 30.6498C61.6989 30.4357 59.8776 28.2847 60.1292 25.637C60.3808 22.9893 62.5747 21.2199 64.8277 21.434C67.0807 21.6481 68.902 23.7991 68.6504 26.4467Z" fill="white" stroke="white" stroke-width="4"/>
<path d="M32.2193 41.01C32.116 40.595 32.1906 40.2646 32.3222 39.9275L34.3465 35.4527L49.9108 53.019C48.6878 53.551 45.9813 54.5997 44.9388 54.5385C44.4795 54.6262 44.112 54.6823 43.6357 54.4619C43.2807 54.2977 42.9718 53.9952 42.9718 53.9952L32.5039 41.6219C32.5039 41.6219 32.3011 41.3381 32.2193 41.01Z" stroke="white" stroke-width="4"/>
<path d="M29.6741 48.4406L18.1253 53.0351L24.3476 54.9711L20.2165 61.5852L27.5172 58.4943L28.3545 64.4056L34.8608 54.2059" stroke="#BDBDBD" stroke-width="4"/>
</svg>
