<svg width="50" height="18" viewBox="0 0 50 18" fill="none" 
    xmlns="http://www.w3.org/2000/svg">
    <mask id="path-1-inside-1" fill="black">
        <path fill-rule="evenodd" clip-rule="evenodd" d="M17 1H1V17H17V1ZM9.68563 12.5609L3.00024 13.7302V5.73022L9.68563 6.92203L15.1947 6.92467V8.15818H10.7676V11.3301H13.9551V10.449H12.8926V9.39168H15.1947V12.5636L9.68563 12.5609ZM8.47883 11.4708V8.00734L4.23902 7.27236V12.2058L6.68101 11.7825L6.00561 10.4439H7.23652L7.81292 11.5863L8.47883 11.4708Z"/>
    </mask>
    <path fill-rule="evenodd" clip-rule="evenodd" d="M17 1H1V17H17V1ZM9.68563 12.5609L3.00024 13.7302V5.73022L9.68563 6.92203L15.1947 6.92467V8.15818H10.7676V11.3301H13.9551V10.449H12.8926V9.39168H15.1947V12.5636L9.68563 12.5609ZM8.47883 11.4708V8.00734L4.23902 7.27236V12.2058L6.68101 11.7825L6.00561 10.4439H7.23652L7.81292 11.5863L8.47883 11.4708Z" fill="black"/>
    <path d="M1 1V-2H-2V1H1ZM17 1H20V-2H17V1ZM1 17H-2V20H1V17ZM17 17V20H20V17H17ZM3.00024 13.7302H0.000244141V17.3005L3.51711 16.6854L3.00024 13.7302ZM9.68563 12.5609L9.68706 9.56092L9.42596 9.5608L9.16876 9.60578L9.68563 12.5609ZM3.00024 5.73022L3.52676 2.77679L0.000244141 2.14811L0.000244141 5.73022H3.00024ZM9.68563 6.92203L9.15912 9.87547L9.4196 9.92191L9.68419 9.92203L9.68563 6.92203ZM15.1947 6.92467H18.1947V3.9261L15.1961 3.92467L15.1947 6.92467ZM15.1947 8.15818V11.1582H18.1947V8.15818H15.1947ZM10.7676 8.15818V5.15818H7.76761V8.15818H10.7676ZM10.7676 11.3301H7.76761V14.3301H10.7676V11.3301ZM13.9551 11.3301V14.3301H16.9551V11.3301H13.9551ZM13.9551 10.449H16.9551V7.44897H13.9551V10.449ZM12.8926 10.449H9.89261V13.449H12.8926V10.449ZM12.8926 9.39168V6.39168H9.89261V9.39168H12.8926ZM15.1947 9.39168H18.1947V6.39168H15.1947V9.39168ZM15.1947 12.5636L15.1933 15.5636L18.1947 15.565V12.5636H15.1947ZM8.47883 8.00734H11.4788V5.48265L8.99124 5.05142L8.47883 8.00734ZM8.47883 11.4708L8.99133 14.4267L11.4788 13.9955V11.4708H8.47883ZM4.23902 7.27236L4.75143 4.31644L1.23902 3.70756V7.27236H4.23902ZM4.23902 12.2058H1.23902V15.7706L4.75143 15.1617L4.23902 12.2058ZM6.68101 11.7825L7.19342 14.7384L11.1836 14.0467L9.3594 10.4311L6.68101 11.7825ZM6.00561 10.4439V7.44386H1.13173L3.32722 11.7952L6.00561 10.4439ZM7.23652 10.4439L9.91492 9.0925L9.08311 7.44386H7.23652V10.4439ZM7.81292 11.5863L5.13453 12.9377L6.13564 14.9219L8.32542 14.5422L7.81292 11.5863ZM1 4H17V-2H1V4ZM4 17V1H-2V17H4ZM17 14H1V20H17V14ZM14 1V17H20V1H14ZM3.51711 16.6854L10.2025 15.5161L9.16876 9.60578L2.48338 10.7751L3.51711 16.6854ZM0.000244141 5.73022V13.7302H6.00024V5.73022H0.000244141ZM10.2121 3.9686L3.52676 2.77679L2.47373 8.68366L9.15912 9.87547L10.2121 3.9686ZM15.1961 3.92467L9.68706 3.92203L9.68419 9.92203L15.1933 9.92467L15.1961 3.92467ZM18.1947 8.15818V6.92467H12.1947V8.15818H18.1947ZM10.7676 11.1582H15.1947V5.15818H10.7676V11.1582ZM13.7676 11.3301V8.15818H7.76761V11.3301H13.7676ZM13.9551 8.33005H10.7676V14.3301H13.9551V8.33005ZM10.9551 10.449V11.3301H16.9551V10.449H10.9551ZM12.8926 13.449H13.9551V7.44897H12.8926V13.449ZM9.89261 9.39168V10.449H15.8926V9.39168H9.89261ZM15.1947 6.39168H12.8926V12.3917H15.1947V6.39168ZM18.1947 12.5636V9.39168H12.1947V12.5636H18.1947ZM9.68419 15.5609L15.1933 15.5636L15.1961 9.56356L9.68706 9.56092L9.68419 15.5609ZM5.47883 8.00734V11.4708H11.4788V8.00734H5.47883ZM3.72661 10.2283L7.96642 10.9633L8.99124 5.05142L4.75143 4.31644L3.72661 10.2283ZM7.23902 12.2058V7.27236H1.23902V12.2058H7.23902ZM6.1686 8.82657L3.72661 9.2499L4.75143 15.1617L7.19342 14.7384L6.1686 8.82657ZM3.32722 11.7952L4.00262 13.1339L9.3594 10.4311L8.684 9.09248L3.32722 11.7952ZM7.23652 7.44386H6.00561V13.4439H7.23652V7.44386ZM10.4913 10.2349L9.91492 9.0925L4.55812 11.7952L5.13453 12.9377L10.4913 10.2349ZM7.96633 8.51494L7.30043 8.63039L8.32542 14.5422L8.99133 14.4267L7.96633 8.51494Z" fill="black" mask="url(#path-1-inside-1)"/>
    <rect x="17" y="1" width="16" height="16" stroke="black"/>
    <rect x="33" y="1" width="16" height="16" stroke="black"/>
    <rect x="0.5" y="0.5" width="49" height="17" stroke="black"/>
    <path d="M41.0075 8.19235L42.3163 6.09985H43.1638L41.4388 8.80735L43.205 11.5599H42.35L41.0075 9.42985L39.6575 11.5599H38.8063L40.5763 8.80735L38.8475 6.09985H39.6913L41.0075 8.19235Z" fill="black"/>
    <path d="M26.5375 9.0361H24.1713V10.9711H26.92V11.5599H23.4513V6.09985H26.8825V6.69235H24.1713V8.44735H26.5375V9.0361Z" fill="black"/>
    <path d="M41.0075 8.19235L42.3163 6.09985H43.1638L41.4388 8.80735L43.205 11.5599H42.35L41.0075 9.42985L39.6575 11.5599H38.8063L40.5763 8.80735L38.8475 6.09985H39.6913L41.0075 8.19235Z" stroke="black" stroke-width="0.5"/>
    <path d="M26.5375 9.0361H24.1713V10.9711H26.92V11.5599H23.4513V6.09985H26.8825V6.69235H24.1713V8.44735H26.5375V9.0361Z" stroke="black" stroke-width="0.5"/>
</svg>
