<svg width="22" height="23" viewBox="0 0 22 23" version="1.1" xmlns="http://www.w3.org/2000/svg" xmlns:xlink="http://www.w3.org/1999/xlink">
    <title>AngularJS</title>
    <g id="Canvas" transform="translate(-1514 -24)">
        <g id="path3680">
            <use xlink:href="#path0_fill" transform="translate(1514 24.0833)" fill="#FFFFFF" fill-opacity="0.8"/>
        </g>
    </g>
    <defs>
        <path id="path0_fill" d="M 8.80894 11.375L 13.0538 11.375L 10.7974 6.70084L 8.80894 11.375ZM 10.8049 -9.85175e-08L -4.11687e-05 3.76686L 1.70725 17.7904L 10.8164 22.75L 19.9723 17.7234L 21.679 3.70021L 10.8049 -9.85175e-08ZM 7.9301 13.3619L 6.60538 16.6451L 4.12903 16.6552L 10.8042 2.00987L 10.7913 1.98223L 10.7797 1.98223L 10.7797 1.95821L 10.7912 1.98223L 10.8169 1.98223L 10.8393 1.93274L 10.8393 1.98223L 10.8167 1.98223L 10.8042 2.00987L 17.7675 16.7162L 15.3836 16.6644L 13.9172 13.3083L 10.7859 13.3231"/>
    </defs>
</svg>
