<svg viewBox="0 0 60 63" version="1.1" xmlns="http://www.w3.org/2000/svg" xmlns:xlink="http://www.w3.org/1999/xlink">
    <title>angularjs</title>
    <desc>Created using Figma</desc>
    <g id="Canvas" transform="translate(-388 -362)">
        <g id="angularjs">
            <g id="Exclude">
                <use xlink:href="#path0_fill" transform="translate(388 362)" fill="#FFFFFF" fill-opacity="0.8"/>
            </g>
        </g>
    </g>
    <defs>
        <path id="path0_fill" d="M 35.9753 31.5L 24.2768 31.5L 29.7568 18.5562L 35.9753 31.5ZM 0 10.4313L 29.7774 0L 59.7454 10.2467L 55.042 49.0803L 29.809 63L 4.70514 49.2658L 0 10.4313ZM 18.2039 46.094L 21.8547 37.0023L 29.7251 36.8947L 38.3546 36.8537L 42.3958 46.1476L 48.9657 46.2911L 29.7754 5.5658L 29.81 5.48926L 29.7401 5.48926L 29.7754 5.5658L 11.3793 46.122L 18.2039 46.094ZM 29.7079 5.48926L 29.7396 5.48926L 29.7079 5.42273L 29.7079 5.48926ZM 29.8723 5.3522L 29.8105 5.48926L 29.8723 5.48926L 29.8723 5.3522ZM 46.7034 12.7184L 45.0921 12.7184L 45.0921 18.1324C 45.0921 18.5227 45.0008 18.8235 44.8182 19.0348C 44.6356 19.246 44.3903 19.3517 44.0823 19.3517C 43.735 19.3517 43.4808 19.2603 43.3196 19.0777C 43.1585 18.8951 43.0779 18.6122 43.0779 18.2291L 41.4559 18.2291C 41.4559 18.999 41.6868 19.5952 42.1487 20.0177C 42.6107 20.4366 43.2552 20.6461 44.0823 20.6461C 44.5872 20.6461 45.0402 20.5422 45.4412 20.3346C 45.8423 20.1269 46.152 19.8333 46.3704 19.4537C 46.5924 19.0706 46.7034 18.6301 46.7034 18.1324L 46.7034 12.7184ZM 51.8167 17.7887C 52.0316 17.9498 52.139 18.1826 52.139 18.4869C 52.139 18.7662 52.0316 18.9846 51.8167 19.1422C 51.6019 19.2961 51.3029 19.3731 50.9197 19.3731C 49.8885 19.3731 49.3729 18.9417 49.3729 18.0787L 47.7562 18.0787C 47.7562 18.5836 47.8851 19.0276 48.1429 19.4107C 48.4043 19.7939 48.782 20.0964 49.2762 20.3185C 49.7703 20.5369 50.3182 20.6461 50.9197 20.6461C 51.7863 20.6461 52.4756 20.4545 52.9876 20.0714C 53.4997 19.6847 53.7557 19.1529 53.7557 18.4762C 53.7557 17.8674 53.5462 17.359 53.1273 16.9508C 52.7083 16.5426 52.0405 16.2006 51.1238 15.9249C 50.6261 15.7745 50.2484 15.6134 49.9905 15.4415C 49.7363 15.2696 49.6092 15.0566 49.6092 14.8023C 49.6092 14.5302 49.7184 14.3118 49.9368 14.1471C 50.1552 13.9788 50.4614 13.8946 50.8553 13.8946C 51.2635 13.8946 51.5804 13.9949 51.806 14.1954C 52.0316 14.3923 52.1443 14.6699 52.1443 15.0279L 53.7557 15.0279C 53.7557 14.5588 53.6339 14.1399 53.3904 13.7711C 53.1505 13.4023 52.8122 13.1176 52.3753 12.9171C 51.9384 12.713 51.4407 12.6109 50.8821 12.6109C 50.3271 12.6109 49.8258 12.704 49.3782 12.8902C 48.9342 13.0764 48.5923 13.336 48.3524 13.669C 48.116 13.9985 47.9979 14.3745 47.9979 14.797C 47.9979 15.6098 48.4419 16.2561 49.3299 16.7359C 49.6557 16.9114 50.098 17.0904 50.6566 17.273C 51.2151 17.4521 51.6019 17.624 51.8167 17.7887Z"/>
    </defs>
</svg>
