<svg width="27" height="26" viewBox="0 0 27 26" version="1.1" xmlns="http://www.w3.org/2000/svg" xmlns:xlink="http://www.w3.org/1999/xlink">
    <title>Github</title>
    <g id="Canvas" transform="translate(-1157 -17)">
        <g id="Vector">
            <use xlink:href="#path0_fill" transform="translate(1157 17)" fill="#FFFFFF" fill-opacity="0.75"/>
        </g>
    </g>
    <defs>
        <path id="path0_fill" fill-rule="evenodd" d="M 13.4999 3.62059e-08C 6.04508 3.62059e-08 -2.55836e-09 5.96729 -2.55836e-09 13.3291C -2.55836e-09 19.2185 3.86813 24.2146 9.23205 25.9773C 9.90651 26.1009 10.1542 25.6882 10.1542 25.3361C 10.1542 25.0183 10.1417 23.9683 10.1359 22.8545C 6.38019 23.6608 5.58769 21.2818 5.58769 21.2818C 4.9736 19.7412 4.08878 19.3315 4.08878 19.3315C 2.86371 18.5042 4.1811 18.5215 4.1811 18.5215C 5.5365 18.6153 6.25053 19.895 6.25053 19.895C 7.45458 21.9323 9.40865 21.3434 10.179 21.0031C 10.3002 20.1416 10.65 19.5533 11.0361 19.2205C 8.03761 18.8839 4.88529 17.7407 4.88529 12.6334C 4.88529 11.1782 5.41288 9.98912 6.27646 9.05545C 6.13607 8.71995 5.67399 7.36426 6.40701 5.52827C 6.40701 5.52827 7.54043 5.17003 10.1202 6.89456C 11.1973 6.59901 12.3524 6.45046 13.4999 6.44538C 14.6467 6.45046 15.8025 6.59857 16.8816 6.89412C 19.4582 5.16959 20.5903 5.52783 20.5903 5.52783C 21.3251 7.3636 20.863 8.71951 20.7229 9.05501C 21.5885 9.98868 22.1122 11.1777 22.1122 12.633C 22.1122 17.7524 18.9541 18.8795 15.948 19.2097C 16.4324 19.6233 16.8639 20.4347 16.8639 21.678C 16.8639 23.4615 16.8483 24.8969 16.8483 25.3359C 16.8483 25.6906 17.0915 26.1062 17.7756 25.9753C 23.1363 24.2109 27 19.2163 27 13.3291C 26.9998 5.96773 20.9554 0.000220745 13.4999 0.000220745L 13.4999 3.62059e-08Z"/>
    </defs>
</svg>
