<svg width="24" height="24" viewBox="0 0 24 24" version="1.1" xmlns="http://www.w3.org/2000/svg" xmlns:xlink="http://www.w3.org/1999/xlink">
    <title>Search</title>
    <g id="Canvas" transform="translate(-3126 -19)">
        <g id="Vector">
            <use xlink:href="#path0_fill" transform="translate(3126 19)" fill="#FFFFFF" fill-opacity="0.8"/>
        </g>
    </g>
    <defs>
        <path id="path0_fill" d="M 17.1527 15.0943L 16.0618 15.0943L 15.6844 14.717C 17.0292 13.1595 17.8388 11.1355 17.8388 8.91938C 17.8388 3.99314 13.8456 0 8.91938 0C 3.99314 0 0 3.99314 0 8.91938C 0 13.8456 3.99314 17.8388 8.91938 17.8388C 11.1355 17.8388 13.1595 17.0292 14.717 15.6913L 15.0943 16.0686L 15.0943 17.1527L 21.9554 24L 24 21.9554L 17.1527 15.0943ZM 8.91938 15.0943C 5.50943 15.0943 2.74443 12.3293 2.74443 8.91938C 2.74443 5.50943 5.50943 2.74443 8.91938 2.74443C 12.3293 2.74443 15.0943 5.50943 15.0943 8.91938C 15.0943 12.3293 12.3293 15.0943 8.91938 15.0943Z"/>
    </defs>
</svg>
